<?xml version="1.0" encoding="UTF-8"?>
<svg version="1.1" xmlns="http://www.w3.org/2000/svg" width="3240" height="3240">
<path d="M0 0 C1069.2 0 2138.4 0 3240 0 C3240 1069.2 3240 2138.4 3240 3240 C2170.8 3240 1101.6 3240 0 3240 C0 2170.8 0 1101.6 0 0 Z " fill="#45B5AA" transform="translate(0,0)"/>
<path d="M0 0 C5.68539517 0.2083321 11.37155666 0.22582826 17.06017923 0.26483846 C27.79942974 0.36684931 38.52740596 0.63675854 49.2617203 0.96937162 C61.49497667 1.34008222 73.72881408 1.52010985 85.9663012 1.68532097 C111.10837569 2.02896217 136.24048758 2.60819813 161.37386942 3.34599996 C160.59374848 4.77457635 159.81060321 6.20150143 159.02621317 7.62773824 C158.59042948 8.42253591 158.15464579 9.21733357 157.70565653 10.03621602 C155.82976299 13.28967051 153.64916561 16.23994256 151.37386942 19.22099996 C147.12702621 24.89969001 143.04541413 30.66754772 139.06136942 36.53349996 C134.60669418 43.08694265 130.11369171 49.60995353 125.56136942 56.09599996 C120.52536403 63.27302786 115.50383935 70.45978728 110.49886942 77.65849996 C109.83282694 78.61635396 109.16678446 79.57420796 108.48055887 80.56108785 C106.4447552 83.48922477 104.40925705 86.41757382 102.37386942 89.34599996 C94.15257417 101.17443767 85.92425619 112.99762499 77.65804911 124.79473042 C70.5376921 134.96063822 63.45745249 145.15445245 56.37386942 155.34599996 C48.15257417 167.17443767 39.92425619 178.99762499 31.65804911 190.79473042 C25.2185274 199.98859301 18.81262517 209.20579194 12.40609598 218.42266011 C8.39857643 224.18744136 4.38842144 229.95038958 0.37875223 235.71367574 C-2.98052547 240.54232944 -6.33914817 245.37143614 -9.69644308 250.20146871 C-16.56202747 260.07734779 -23.439817 269.94436006 -30.34195089 279.79473042 C-37.4623079 289.96063822 -44.54254751 300.15445245 -51.62613058 310.34599996 C-59.84742583 322.17443767 -68.07574381 333.99762499 -76.34195089 345.79473042 C-82.7814726 354.98859301 -89.18737483 364.20579194 -95.59390402 373.42266011 C-99.60142357 379.18744136 -103.61157856 384.95038958 -107.62124777 390.71367574 C-110.98052547 395.54232944 -114.33914817 400.37143614 -117.69644308 405.20146871 C-124.56202747 415.07734779 -131.439817 424.94436006 -138.34195089 434.79473042 C-145.4623079 444.96063822 -152.54254751 455.15445245 -159.62613058 465.34599996 C-167.84742583 477.17443767 -176.07574381 488.99762499 -184.34195089 500.79473042 C-191.4623079 510.96063822 -198.54254751 521.15445245 -205.62613058 531.34599996 C-213.8372202 543.15975426 -222.05514248 554.96839451 -230.31118917 566.75078511 C-235.01159661 573.46161588 -239.69652836 580.18314703 -244.37613058 586.90849996 C-245.06835714 587.90301167 -245.76058371 588.89752339 -246.47378683 589.92217183 C-247.43865011 591.30952535 -247.43865011 591.30952535 -248.42300558 592.72490621 C-248.993738 593.54547505 -249.56447042 594.3660439 -250.15249777 595.21147847 C-252.78257269 598.43525144 -252.78257269 598.43525144 -253.40640402 602.28887105 C-252.55325075 604.53814184 -251.50987154 606.28126665 -250.14175558 608.26006246 C-249.62556662 609.01150533 -249.10937765 609.7629482 -248.5775466 610.53716207 C-248.01607931 611.34032857 -247.45461203 612.14349507 -246.87613058 612.97099996 C-246.00202536 614.23472432 -246.00202536 614.23472432 -245.11026144 615.52397847 C-240.67749887 621.90646535 -236.14638864 628.21574273 -231.57657003 634.50054097 C-225.71224888 642.57287522 -220.01534103 650.76021336 -214.30630636 658.94267964 C-211.71607292 662.64774475 -209.10997681 666.34152624 -206.50113058 670.03349996 C-206.01378439 670.72322896 -205.5264382 671.41295796 -205.02432394 672.12358785 C-204.04762454 673.50558096 -203.0708184 674.88749865 -202.09390402 676.2693398 C-199.60292072 679.79367512 -197.11468155 683.31994697 -194.62613058 686.84599996 C-193.62614336 688.26267564 -192.62614337 689.67934231 -191.62613058 691.09599996 C-189.62613058 693.92933329 -187.62613058 696.76266662 -185.62613058 699.59599996 C-184.88387228 700.64751241 -184.88387228 700.64751241 -184.12661886 701.72026753 C-183.12494015 703.13933954 -182.12331269 704.55844771 -181.12173605 705.97759175 C-178.64783563 709.4827527 -176.17309692 712.98731511 -173.69644308 716.49053121 C-167.72211001 724.94357693 -161.77414024 733.41459588 -155.84195089 741.89726949 C-150.61413861 749.36989802 -145.35849678 756.8225962 -140.09390402 764.2693398 C-137.60292072 767.79367512 -135.11468155 771.31994697 -132.62613058 774.84599996 C-131.62614336 776.26267564 -130.62614337 777.67934231 -129.62613058 779.09599996 C-95.62613058 827.26266662 -61.62613058 875.42933329 -27.62613058 923.59599996 C-27.13129171 924.29700826 -26.63645285 924.99801656 -26.12661886 925.72026753 C-25.12494015 927.13933954 -24.12331269 928.55844771 -23.12173605 929.97759175 C-20.64783563 933.4827527 -18.17309692 936.98731511 -15.69644308 940.49053121 C-9.72211001 948.94357693 -3.77414024 957.41459588 2.15804911 965.89726949 C7.38586139 973.36989802 12.64150322 980.8225962 17.90609598 988.2693398 C20.39707928 991.79367512 22.88531845 995.31994697 25.37386942 998.84599996 C26.37385664 1000.26267564 27.37385663 1001.67934231 28.37386942 1003.09599996 C62.37386942 1051.26266662 96.37386942 1099.42933329 130.37386942 1147.59599996 C130.86870829 1148.29700826 131.36354715 1148.99801656 131.87338114 1149.72026753 C132.87505985 1151.13933954 133.87668731 1152.55844771 134.87826395 1153.97759175 C137.35216437 1157.4827527 139.82690308 1160.98731511 142.30355692 1164.49053121 C148.27788999 1172.94357693 154.22585976 1181.41459588 160.15804911 1189.89726949 C165.38586139 1197.36989802 170.64150322 1204.8225962 175.90609598 1212.2693398 C177.39350822 1214.37378565 178.87996456 1216.47890312 180.36605692 1218.58428121 C180.86274881 1219.2879482 181.35944071 1219.99161519 181.87118387 1220.71660542 C182.86734598 1222.12822621 183.86327963 1223.54000825 184.85897684 1224.95195699 C187.43937613 1228.61016954 190.02526676 1232.26431736 192.61996317 1235.91240621 C193.15427958 1236.66521871 193.68859598 1237.41803121 194.23910379 1238.19365621 C195.25030302 1239.61812816 196.26318743 1241.04140614 197.27816629 1242.46318746 C197.74158426 1243.11674214 198.20500223 1243.77029683 198.68246317 1244.44365621 C199.08263651 1245.00576802 199.48280985 1245.56787984 199.89510965 1246.14702535 C201.29853488 1248.2339745 202.63605593 1250.34928997 203.9662919 1252.48343587 C204.41701091 1253.20609356 204.86772991 1253.92875125 205.33210707 1254.67330766 C205.67588864 1255.22529612 206.01967022 1255.77728457 206.37386942 1256.34599996 C190.02299421 1256.72077542 173.6735239 1257.00238552 157.3193841 1257.17499471 C149.72458948 1257.25729484 142.1324719 1257.36934872 134.53939676 1257.55303121 C127.91628457 1257.71317231 121.2951111 1257.81587931 114.67011666 1257.85141587 C111.16513791 1257.87217651 107.66570144 1257.92044274 104.1625123 1258.03768086 C82.97216515 1258.71943357 82.97216515 1258.71943357 77.06654215 1254.82408834 C73.28846183 1251.2123053 70.77191107 1247.10973896 68.46997786 1242.45170808 C66.64366701 1238.9432253 64.30624859 1235.79965404 61.99886942 1232.59599996 C61.09160654 1231.26815163 60.18607875 1229.93911172 59.28402567 1228.60771871 C56.0426043 1223.84579639 52.74241795 1219.12569973 49.43636942 1214.40849996 C48.84372293 1213.56279439 48.25107645 1212.71708882 47.64047098 1211.84575582 C42.39022426 1204.36006369 37.11984645 1196.88865618 31.84164286 1189.42266011 C29.35065956 1185.8983248 26.86242039 1182.37205295 24.37386942 1178.84599996 C23.3738822 1177.42932427 22.3738822 1176.0126576 21.37386942 1174.59599996 C-8.62613058 1132.09599996 -38.62613058 1089.59599996 -68.62613058 1047.09599996 C-69.12096945 1046.39499166 -69.61580832 1045.69398335 -70.1256423 1044.97173238 C-71.12732101 1043.55266038 -72.12894848 1042.1335522 -73.13052511 1040.71440816 C-75.60442553 1037.20924721 -78.07916424 1033.70468481 -80.55581808 1030.20146871 C-86.53015115 1021.74842298 -92.47812092 1013.27740403 -98.41031027 1004.79473042 C-103.63812255 997.32210189 -108.89376438 989.86940371 -114.15835714 982.42266011 C-116.64934044 978.8983248 -119.13757961 975.37205295 -121.62613058 971.84599996 C-122.6261178 970.42932427 -123.6261178 969.0126576 -124.62613058 967.59599996 C-175.62613058 895.34599996 -175.62613058 895.34599996 -226.62613058 823.09599996 C-227.36838888 822.0444875 -227.36838888 822.0444875 -228.1256423 820.97173238 C-229.12732101 819.55266038 -230.12894848 818.1335522 -231.13052511 816.71440816 C-233.60442553 813.20924721 -236.07916424 809.70468481 -238.55581808 806.20146871 C-244.53015115 797.74842298 -250.47812092 789.27740403 -256.41031027 780.79473042 C-261.63812255 773.32210189 -266.89376438 765.86940371 -272.15835714 758.42266011 C-274.64934044 754.8983248 -277.13757961 751.37205295 -279.62613058 747.84599996 C-280.6261178 746.42932427 -281.6261178 745.0126576 -282.62613058 743.59599996 C-336.62613058 667.09599996 -336.62613058 667.09599996 -338.12783957 664.96855855 C-339.12211736 663.56001184 -340.11642051 662.15148303 -341.11074972 660.74297261 C-343.69851374 657.07722126 -346.28576108 653.41110674 -348.87222433 649.74443746 C-349.40654074 648.98711324 -349.94085714 648.22978902 -350.49136496 647.44951558 C-351.50455113 646.0134343 -352.51758381 644.57724471 -353.53042746 643.14092183 C-353.99384542 642.48414449 -354.45726339 641.82736714 -354.93472433 641.15068746 C-355.3780007 640.51485738 -355.82127707 639.8790273 -356.27798605 639.22392964 C-357.19220753 637.9504433 -358.14086088 636.70111378 -359.11880636 635.47588277 C-362.67581658 630.93496652 -362.67581658 630.93496652 -362.41909933 627.89189839 C-361.59927392 625.25977419 -360.6348932 623.52048521 -359.02847433 621.29131246 C-358.48271749 620.52391744 -357.93696066 619.75652242 -357.37466574 618.965873 C-356.77702414 618.1425649 -356.17938253 617.31925679 -355.56363058 616.47099996 C-354.2779021 614.66802247 -352.99276866 612.86462054 -351.70816183 611.06084371 C-351.03607687 610.12224507 -350.36399191 609.18364644 -349.67154074 608.21660542 C-346.32336706 603.51765268 -343.03915653 598.77463823 -339.75113058 594.03349996 C-338.39976627 592.08935176 -337.04820234 590.14534231 -335.69644308 588.20146871 C-335.02387472 587.23386617 -334.35130636 586.26626363 -333.65835714 585.2693398 C-329.65083759 579.50455855 -325.6406826 573.74161033 -321.63101339 567.97832417 C-318.27173569 563.14967047 -314.91311299 558.32056377 -311.55581808 553.49053121 C-304.69023369 543.61465212 -297.81244416 533.74763985 -290.91031027 523.89726949 C-283.78995326 513.7313617 -276.70971365 503.53754747 -269.62613058 493.34599996 C-261.40483533 481.51756225 -253.17651735 469.69437492 -244.91031027 457.89726949 C-238.47078856 448.7034069 -232.06488633 439.48620798 -225.65835714 430.2693398 C-221.65083759 424.50455855 -217.6406826 418.74161033 -213.63101339 412.97832417 C-210.27173569 408.14967047 -206.91311299 403.32056377 -203.55581808 398.49053121 C-196.69023369 388.61465212 -189.81244416 378.74763985 -182.91031027 368.89726949 C-175.78995326 358.7313617 -168.70971365 348.53754747 -161.62613058 338.34599996 C-153.40483533 326.51756225 -145.17651735 314.69437492 -136.91031027 302.89726949 C-130.47078856 293.7034069 -124.06488633 284.48620798 -117.65835714 275.2693398 C-113.65083759 269.50455855 -109.6406826 263.74161033 -105.63101339 257.97832417 C-102.27173569 253.14967047 -98.91311299 248.32056377 -95.55581808 243.49053121 C-88.69023369 233.61465212 -81.81244416 223.74763985 -74.91031027 213.89726949 C-67.78995326 203.7313617 -60.70971365 193.53754747 -53.62613058 183.34599996 C-45.40483533 171.51756225 -37.17651735 159.69437492 -28.91031027 147.89726949 C-22.47498492 138.70939815 -16.0736672 129.49793708 -9.67154074 120.28691792 C-7.62048234 117.33787884 -5.56702363 114.39052558 -3.51284933 111.44365621 C-2.8301296 110.46372701 -2.14740988 109.48379781 -1.44400167 108.47417378 C-0.17800922 106.65718023 1.08852022 104.84056059 2.35580301 103.02446675 C8.7541118 93.83757178 15.05113542 84.58691887 21.37386942 75.34599996 C-15.58613058 75.34599996 -52.54613058 75.34599996 -90.62613058 75.34599996 C-88.86409952 70.94092229 -86.83156144 67.43483236 -84.17300558 63.58037496 C-83.4897521 62.57638661 -83.4897521 62.57638661 -82.79269552 61.55211568 C-81.32498213 59.39698358 -79.85096989 57.24626024 -78.37613058 55.09599996 C-77.01409192 53.10402446 -75.65348395 51.11130603 -74.30165434 49.11238503 C-73.28655123 47.63329468 -72.25229581 46.1670971 -71.19598341 44.71714997 C-67.90577488 40.1016406 -65.15393332 35.49812663 -62.77815115 30.36597294 C-48.6688512 0.24359316 -31.3320836 -1.34437644 0 0 Z " fill="#FEFEFE" transform="translate(996.6261305809021,1016.654000043869)"/>
<path d="M0 0 C60.06 0 120.12 0 182 0 C186.47154472 13.41463415 186.47154472 13.41463415 187.8125 18.25 C189.62583238 24.6997744 191.49285352 31.13246889 193.375 37.5625 C195.65086039 45.34692859 197.90447652 53.13710688 200.125 60.9375 C202.26441264 68.45023991 204.44476852 75.94960893 206.65625 83.44140625 C210.47493533 96.38154223 214.25076737 109.33414529 217.9375 122.3125 C220.61161024 131.72234934 223.38969392 141.10026855 226.17724609 150.47705078 C228.1393732 157.08139868 230.07286888 163.69109401 231.94921875 170.3203125 C233.40196907 175.40763889 234.8900088 180.48450598 236.375 185.5625 C238.65064475 193.34699249 240.90447606 201.13710527 243.125 208.9375 C245.26441264 216.45023991 247.44476852 223.94960893 249.65625 231.44140625 C253.79420353 245.46342604 257.86876064 259.5034663 261.87304688 273.56420898 C263.56633569 279.50257285 265.29128421 285.43078543 267.04003906 291.35302734 C269.74677303 300.51969096 272.41446772 309.69774397 275.08837891 318.87402344 C275.98853594 321.9606894 276.890465 325.04683195 277.79296875 328.1328125 C280.85319448 338.60120845 283.88629019 349.07645962 286.87353516 359.56591797 C288.76569782 366.20174125 290.70271266 372.8234418 292.65625 379.44140625 C296.79420353 393.46342604 300.86876064 407.5034663 304.87304688 421.56420898 C306.76537436 428.20060146 308.70254489 434.82287346 310.65625 441.44140625 C314.47493533 454.38154223 318.25076737 467.33414529 321.9375 480.3125 C324.61161024 489.72234934 327.38969392 499.10026855 330.17724609 508.47705078 C332.1393732 515.08139868 334.07286888 521.69109401 335.94921875 528.3203125 C337.40196907 533.40763889 338.8900088 538.48450598 340.375 543.5625 C342.65064475 551.34699249 344.90447606 559.13710527 347.125 566.9375 C349.26441264 574.45023991 351.44476852 581.94960893 353.65625 589.44140625 C357.79420353 603.46342604 361.86876064 617.5034663 365.87304688 631.56420898 C367.56633569 637.50257285 369.29128421 643.43078543 371.04003906 649.35302734 C373.74677303 658.51969096 376.41446772 667.69774397 379.08837891 676.87402344 C379.98853594 679.9606894 380.890465 683.04683195 381.79296875 686.1328125 C384.85319448 696.60120845 387.88629019 707.07645962 390.87353516 717.56591797 C392.76569782 724.20174125 394.70271266 730.8234418 396.65625 737.44140625 C400.79420353 751.46342604 404.86876064 765.5034663 408.87304688 779.56420898 C410.37183925 784.82047384 411.89090532 790.07010564 413.4375 795.3125 C413.63561279 795.98442383 413.83372559 796.65634766 414.0378418 797.34863281 C414.45876028 798.77573424 414.87974257 800.20281685 415.30078125 801.62988281 C415.53152344 802.41202148 415.76226563 803.19416016 416 804 C416.26425781 804.89557617 416.52851563 805.79115234 416.80078125 806.71386719 C419.95166628 817.40745304 423.05426398 828.10587263 425.9375 838.875 C428.75649909 849.38322409 431.96237593 859.76019457 435.19140625 870.1484375 C436.85536254 875.50791479 438.43311502 880.88194958 439.94921875 886.28515625 C441.39233967 891.38704471 442.88585371 896.4738858 444.375 901.5625 C446.65080831 909.34694398 448.90447642 917.13710651 451.125 924.9375 C453.06267952 931.74183593 455.02675664 938.53731936 457.03125 945.32226562 C459.20850001 952.69301965 461.35568748 960.07249296 463.50170898 967.45239258 C463.78216064 968.41556396 464.0626123 969.37873535 464.3515625 970.37109375 C464.62129883 971.31581543 464.89103516 972.26053711 465.16894531 973.23388672 C465.71385138 975.0475723 466.3057886 976.84792565 466.94824219 978.62939453 C469.14086767 984.88042746 468.94744829 988.73916363 467 995 C466.50141334 996.91795303 466.00828431 998.83733002 465.51953125 1000.7578125 C464.95383516 1002.88109413 464.3846568 1005.00345021 463.8125 1007.125 C463.50135254 1008.27895264 463.19020508 1009.43290527 462.86962891 1010.62182617 C460.98248549 1017.5554826 459.00007922 1024.44831761 456.875 1031.3125 C453.27596615 1042.93843132 449.87991421 1054.62128426 446.5 1066.3125 C446.21377777 1067.30219788 445.92755554 1068.29189575 445.63265991 1069.31158447 C442.08832146 1081.58275421 438.64236271 1093.86907217 435.38842773 1106.22070312 C433.17345156 1114.55005816 430.65016346 1122.76842146 428.06274414 1130.98876953 C426.1909193 1136.98061147 424.42518328 1142.98823972 422.78515625 1149.046875 C422.60330276 1149.71744431 422.42144928 1150.38801361 422.23408508 1151.0789032 C421.34786417 1154.35716859 420.47422261 1157.63798706 419.61352539 1160.9230957 C419.30020264 1162.09445068 418.98687988 1163.26580566 418.6640625 1164.47265625 C418.39029785 1165.51687744 418.1165332 1166.56109863 417.83447266 1167.63696289 C417 1170 417 1170 415 1171 C414.82460693 1170.36835938 414.64921387 1169.73671875 414.46850586 1169.0859375 C410.37341028 1154.35579778 406.18167331 1139.65788721 401.875 1124.98828125 C400.995075 1121.98318025 400.12152706 1118.97629649 399.25 1115.96875 C396.34028658 1105.93603865 393.37949863 1095.92334478 390.3125 1085.9375 C388.08168272 1078.66673302 385.99550712 1071.39202526 384.08203125 1064.03125 C381.8781628 1055.68788044 379.3569028 1047.4278624 376.92333984 1039.14941406 C376.02279411 1036.0777483 375.12915448 1033.00417118 374.23828125 1029.9296875 C371.37504885 1020.05539192 368.46149765 1010.20132715 365.4375 1000.375 C362.88552176 992.06836729 360.5220066 983.72667644 358.26708984 975.33496094 C355.62356414 965.52512497 352.75960412 955.78259681 349.89111328 946.03662109 C349.00346168 943.01179628 348.12343463 939.9848615 347.24609375 936.95703125 C344.38037402 927.07358197 341.46428715 917.2103915 338.4375 907.375 C335.88552176 899.06836729 333.5220066 890.72667644 331.26708984 882.33496094 C328.62321124 872.52381538 325.75956544 862.77963746 322.89111328 853.03222656 C321.41925123 848.02386309 319.96034241 843.01173176 318.5 838 C317.91668533 836.00129664 317.33335199 834.00259872 316.75 832.00390625 C315.57965417 827.99194506 314.41336286 823.97883513 313.25 819.96484375 C310.38131965 810.07929924 307.46512375 800.21310998 304.4375 790.375 C301.88552176 782.06836729 299.5220066 773.72667644 297.26708984 765.33496094 C294.62321124 755.52381538 291.75956544 745.77963746 288.89111328 736.03222656 C287.41925137 731.02386356 285.96018519 726.01177722 284.5 721 C282.74033006 714.96424347 280.97954295 708.92881946 279.21484375 702.89453125 C276.20004866 692.58075859 273.21000495 682.26078352 270.26708984 671.92626953 C267.5190081 662.28893732 264.70443241 652.67118208 261.89111328 643.05273438 C261.00599051 640.020522 260.12534163 636.98704567 259.24609375 633.953125 C256.37922759 624.07133061 253.46391505 614.20918238 250.4375 604.375 C247.88552176 596.06836729 245.5220066 587.72667644 243.26708984 579.33496094 C240.62321124 569.52381538 237.75956544 559.77963746 234.89111328 550.03222656 C233.41925123 545.02386309 231.96034241 540.01173176 230.5 535 C229.91668533 533.00129664 229.33335199 531.00259872 228.75 529.00390625 C227.57965417 524.99194506 226.41336286 520.97883513 225.25 516.96484375 C222.38131965 507.07929924 219.46512375 497.21310998 216.4375 487.375 C213.88552176 479.06836729 211.5220066 470.72667644 209.26708984 462.33496094 C206.62356414 452.52512497 203.75960412 442.78259681 200.89111328 433.03662109 C200.00346168 430.01179628 199.12343463 426.9848615 198.24609375 423.95703125 C195.38037402 414.07358197 192.46428715 404.2103915 189.4375 394.375 C186.88552176 386.06836729 184.5220066 377.72667644 182.26708984 369.33496094 C179.62321124 359.52381538 176.75956544 349.77963746 173.89111328 340.03222656 C172.41925123 335.02386309 170.96034241 330.01173176 169.5 325 C168.91668533 323.00129664 168.33335199 321.00259872 167.75 319.00390625 C166.57965417 314.99194506 165.41336286 310.97883513 164.25 306.96484375 C161.38131965 297.07929924 158.46512375 287.21310998 155.4375 277.375 C152.88552176 269.06836729 150.5220066 260.72667644 148.26708984 252.33496094 C145.62321124 242.52381538 142.75956544 232.77963746 139.89111328 223.03222656 C138.41925137 218.02386356 136.96018519 213.01177722 135.5 208 C133.74033006 201.96424347 131.97954295 195.92881946 130.21484375 189.89453125 C127.20004866 179.58075859 124.21000495 169.26078352 121.26708984 158.92626953 C118.5190081 149.28893732 115.70443241 139.67118208 112.89111328 130.05273438 C112.00599051 127.020522 111.12534163 123.98704567 110.24609375 120.953125 C109.66418788 118.94788028 109.08215717 116.94267178 108.5 114.9375 C108.21568115 113.95676514 107.9313623 112.97603027 107.63842773 111.96557617 C106.14823289 106.84978733 104.62178152 101.748137 103.0390625 96.66015625 C102.71873047 95.62705322 102.39839844 94.5939502 102.06835938 93.52954102 C101.45852738 91.57110282 100.84302633 89.61441692 100.22070312 87.65991211 C99.94419922 86.77182861 99.66769531 85.88374512 99.3828125 84.96875 C99.01760498 83.81536133 99.01760498 83.81536133 98.64501953 82.63867188 C97.79293707 79.15293861 97.4450822 75.56065763 97 72 C58.39 72 19.78 72 -20 72 C-18.6757015 64.71635827 -17.265341 57.92110279 -15.13671875 50.8984375 C-14.86285843 49.9776944 -14.58899811 49.05695129 -14.30683899 48.10830688 C-13.43918828 45.19554002 -12.5635792 42.28524152 -11.6875 39.375 C-11.11208558 37.44938141 -10.53721214 35.52360108 -9.96289062 33.59765625 C-9.14286513 30.84866843 -8.32220851 28.09989457 -7.49723816 25.35238647 C-4.96297395 16.91148557 -2.48695167 8.45563569 0 0 Z " fill="#FEFEFE" transform="translate(2206,1020)"/>
<path d="M0 0 C58.08 0 116.16 0 176 0 C178.68722642 7.38987266 181.16595769 14.64928893 183.3125 22.1875 C183.92307734 24.30601833 184.53375732 26.42450709 185.14453125 28.54296875 C185.45213379 29.61466309 185.75973633 30.68635742 186.07666016 31.79052734 C187.53644114 36.86463649 189.01893836 41.9320703 190.5 47 C191.08213119 48.99606461 191.66416218 50.99215844 192.24609375 52.98828125 C193.42420612 57.02780558 194.60407034 61.06681287 195.78515625 65.10546875 C198.84779093 75.58303566 201.88369396 86.06734318 204.87353516 96.56591797 C206.5666594 102.5037126 208.29145202 108.43135373 210.04003906 114.35302734 C212.74677303 123.51969096 215.41446772 132.69774397 218.08837891 141.87402344 C218.98853594 144.9606894 219.890465 148.04683195 220.79296875 151.1328125 C223.85319448 161.60120845 226.88629019 172.07645962 229.87353516 182.56591797 C231.5666594 188.5037126 233.29145202 194.43135373 235.04003906 200.35302734 C237.74677303 209.51969096 240.41446772 218.69774397 243.08837891 227.87402344 C243.98853594 230.9606894 244.890465 234.04683195 245.79296875 237.1328125 C248.85319448 247.60120845 251.88629019 258.07645962 254.87353516 268.56591797 C256.5666594 274.5037126 258.29145202 280.43135373 260.04003906 286.35302734 C262.74677303 295.51969096 265.41446772 304.69774397 268.08837891 313.87402344 C268.98853594 316.9606894 269.890465 320.04683195 270.79296875 323.1328125 C273.53650289 332.51807048 276.26549507 341.90660802 278.9375 351.3125 C281.61161927 360.7223468 284.38969389 370.10026844 287.17724609 379.47705078 C289.1393732 386.08139868 291.07286888 392.69109401 292.94921875 399.3203125 C294.401969 404.40763866 295.88998117 409.48451425 297.375 414.5625 C299.5900165 422.13820895 301.78162733 429.7197583 303.9375 437.3125 C306.61148587 446.72238361 309.38969449 456.10027047 312.17724609 465.47705078 C314.1393732 472.08139868 316.07286888 478.69109401 317.94921875 485.3203125 C319.401969 490.40763866 320.88998117 495.48451425 322.375 500.5625 C324.5900165 508.13820895 326.78162733 515.7197583 328.9375 523.3125 C331.61148587 532.72238361 334.38969449 542.10027047 337.17724609 551.47705078 C339.1393732 558.08139868 341.07286888 564.69109401 342.94921875 571.3203125 C344.40196915 576.40763918 345.89004317 581.48449573 347.375 586.5625 C349.56508297 594.05595669 351.73791356 601.55375773 353.875 609.0625 C359.57457732 629.07103655 365.40282718 649.04171618 371.3293457 668.98413086 C373.24159261 675.42342809 375.12260819 681.86902233 376.953125 688.33203125 C378.38595914 693.35229713 379.84935662 698.3634959 381.3125 703.375 C381.61220703 704.40173828 381.91191406 705.42847656 382.22070312 706.48632812 C383.44776218 710.68854948 384.67555777 714.89055473 385.90429688 719.09228516 C389.26189188 730.57386413 392.5970757 742.06090737 395.87353516 753.56591797 C397.5666594 759.5037126 399.29145202 765.43135373 401.04003906 771.35302734 C403.74677303 780.51969096 406.41446772 789.69774397 409.08837891 798.87402344 C409.98853594 801.9606894 410.890465 805.04683195 411.79296875 808.1328125 C414.85319448 818.60120845 417.88629019 829.07645962 420.87353516 839.56591797 C422.5666594 845.5037126 424.29145202 851.43135373 426.04003906 857.35302734 C428.74677303 866.51969096 431.41446772 875.69774397 434.08837891 884.87402344 C434.98853594 887.9606894 435.890465 891.04683195 436.79296875 894.1328125 C439.53650289 903.51807048 442.26549507 912.90660802 444.9375 922.3125 C447.608703 931.71208487 450.38307106 941.07998883 453.16845703 950.44628906 C455.2203081 957.35077287 457.24573072 964.26006016 459.19140625 971.1953125 C460.20159915 974.6992666 461.32195853 978.16475969 462.484375 981.62109375 C464.04887629 988.83913381 462.09367977 994.7550955 459.875 1001.5625 C459.22508188 1003.62021692 458.57801429 1005.67883602 457.93359375 1007.73828125 C457.6072998 1008.78064941 457.28100586 1009.82301758 456.94482422 1010.89697266 C455.49704409 1015.65182677 454.21352777 1020.44673404 452.9375 1025.25 C450.90020672 1032.8699359 448.66338977 1040.39314659 446.24755859 1047.90087891 C442.61166518 1059.24798485 439.45484437 1070.73645854 436.27734375 1082.21875 C433.4192373 1092.52953061 430.49320572 1102.78881426 427.19921875 1112.96923828 C425.2882007 1118.93481656 423.61710297 1124.94873553 422 1131 C418.48072494 1144.15973178 414.32711978 1157.08687381 410 1170 C407.79388377 1167.79388377 407.50269881 1166.78884146 406.73828125 1163.8359375 C406.39615601 1162.54248413 406.39615601 1162.54248413 406.04711914 1161.22290039 C405.68348267 1159.8131897 405.68348267 1159.8131897 405.3125 1158.375 C404.77783921 1156.36019922 404.24131603 1154.34589191 403.703125 1152.33203125 C403.42404297 1151.28611816 403.14496094 1150.24020508 402.85742188 1149.16259766 C401.48787587 1144.1110319 400.03238875 1139.08564924 398.5625 1134.0625 C398.12526611 1132.56686523 398.12526611 1132.56686523 397.67919922 1131.04101562 C395.6502658 1124.13618682 393.55241856 1117.25388497 391.4375 1110.375 C388.88576894 1102.068286 386.52200926 1093.72668635 384.26708984 1085.33496094 C381.62356414 1075.52512497 378.75960412 1065.78259681 375.89111328 1056.03662109 C375.00346168 1053.01179628 374.12343463 1049.9848615 373.24609375 1046.95703125 C370.38037402 1037.07358197 367.46428715 1027.2103915 364.4375 1017.375 C361.88572307 1009.06902255 359.52351755 1000.72773199 357.26708984 992.3371582 C353.29200628 977.59523937 348.92421949 962.96829353 344.4375 948.375 C341.88576894 940.068286 339.52200926 931.72668635 337.26708984 923.33496094 C334.62356414 913.52512497 331.75960412 903.78259681 328.89111328 894.03662109 C328.00346168 891.01179628 327.12343463 887.9848615 326.24609375 884.95703125 C323.38037402 875.07358197 320.46428715 865.2103915 317.4375 855.375 C314.88572307 847.06902255 312.52351755 838.72773199 310.26708984 830.3371582 C306.29200628 815.59523937 301.92421949 800.96829353 297.4375 786.375 C294.88576894 778.068286 292.52200926 769.72668635 290.26708984 761.33496094 C287.62356414 751.52512497 284.75960412 741.78259681 281.89111328 732.03662109 C281.00346168 729.01179628 280.12343463 725.9848615 279.24609375 722.95703125 C276.40405888 713.15570552 273.51068934 703.37590059 270.5 693.625 C267.58959661 684.18766722 264.97089095 674.68694021 262.484375 665.12939453 C260.86233628 658.95369761 259.00583156 652.91781553 256.94848633 646.8737793 C255.51948236 642.54409959 254.34930069 638.15745954 253.1875 633.75 C250.24867664 622.79714789 247.09291333 611.91504716 243.89111328 601.03662109 C243.00346168 598.01179628 242.12343463 594.9848615 241.24609375 591.95703125 C238.40405888 582.15570552 235.51068934 572.37590059 232.5 562.625 C229.58959661 553.18766722 226.97089095 543.68694021 224.484375 534.12939453 C222.86233628 527.95369761 221.00583156 521.91781553 218.94848633 515.8737793 C217.51948236 511.54409959 216.34930069 507.15745954 215.1875 502.75 C212.24867664 491.79714789 209.09291333 480.91504716 205.89111328 470.03662109 C205.00346168 467.01179628 204.12343463 463.9848615 203.24609375 460.95703125 C200.38037402 451.07358197 197.46428715 441.2103915 194.4375 431.375 C191.88572307 423.06902255 189.52351755 414.72773199 187.26708984 406.3371582 C183.29200628 391.59523937 178.92421949 376.96829353 174.4375 362.375 C171.88576894 354.068286 169.52200926 345.72668635 167.26708984 337.33496094 C164.62356414 327.52512497 161.75960412 317.78259681 158.89111328 308.03662109 C158.00346168 305.01179628 157.12343463 301.9848615 156.24609375 298.95703125 C153.40405888 289.15570552 150.51068934 279.37590059 147.5 269.625 C144.58959661 260.18766722 141.97089095 250.68694021 139.484375 241.12939453 C137.86233628 234.95369761 136.00583156 228.91781553 133.94848633 222.8737793 C132.51948236 218.54409959 131.34930069 214.15745954 130.1875 209.75 C127.24867664 198.79714789 124.09291333 187.91504716 120.89111328 177.03662109 C120.00346168 174.01179628 119.12343463 170.9848615 118.24609375 167.95703125 C115.38037402 158.07358197 112.46428715 148.2103915 109.4375 138.375 C106.88894865 130.07952174 104.52380965 121.75011823 102.27807617 113.36791992 C100.10205501 105.27486491 97.75749096 97.23519794 95.359375 89.20532227 C95.0809375 88.26487061 94.8025 87.32441895 94.515625 86.35546875 C94.27102539 85.53715576 94.02642578 84.71884277 93.77441406 83.87573242 C92.71735088 79.95040228 91.88185898 75.96836541 91 72 C67.9 72 44.8 72 21 72 C11.89458513 44.68375539 11.89458513 44.68375539 9.375 35.1875 C7.05705534 26.66007732 4.57602405 18.21743514 1.77685547 9.8347168 C0.63204211 6.34323276 0 3.71623749 0 0 Z " fill="#FEFEFE" transform="translate(1459,1020)"/>
<path d="M0 0 C58.41 0 116.82 0 177 0 C175.16004408 6.74650503 173.29333353 13.44405928 171.25 20.125 C168.88855875 27.90804135 166.66759194 35.72343094 164.5 43.5625 C162.0011799 52.57837432 159.31780014 61.5100531 156.4609375 70.41796875 C152.15008663 83.87139186 148.25871677 97.44621715 144.53540039 111.07275391 C142.843104 117.20952075 140.95769071 123.24682513 138.91503906 129.27587891 C137.7559546 132.72653643 136.70863604 136.19335812 135.6875 139.6875 C135.48584229 140.37610107 135.28418457 141.06470215 135.07641602 141.77416992 C133.77408567 146.24950355 132.51289076 150.73558699 131.265625 155.2265625 C130.96309814 156.31493408 130.66057129 157.40330566 130.34887695 158.5246582 C129.75831756 160.65513325 129.17072638 162.78643421 128.58666992 164.91870117 C126.8743353 171.10807216 124.97351755 177.20038499 122.9128418 183.2824707 C121.75448285 186.73090437 120.70798039 190.19560165 119.6875 193.6875 C119.48584229 194.37610107 119.28418457 195.06470215 119.07641602 195.77416992 C117.77408567 200.24950355 116.51289076 204.73558699 115.265625 209.2265625 C114.96309814 210.31493408 114.66057129 211.40330566 114.34887695 212.5246582 C113.75831756 214.65513325 113.17072638 216.78643421 112.58666992 218.91870117 C110.8743353 225.10807216 108.97351755 231.20038499 106.9128418 237.2824707 C105.75448285 240.73090437 104.70798039 244.19560165 103.6875 247.6875 C103.48439209 248.38117676 103.28128418 249.07485352 103.07202148 249.78955078 C101.48909356 255.22965409 99.97173626 260.68727913 98.45800781 266.14697266 C95.64356064 276.29217998 92.68774183 286.36302267 89.46875 296.38671875 C87.10103315 303.77317232 84.90523757 311.21223112 82.69824219 318.64794922 C82.05362946 320.81934748 81.40594303 322.98980611 80.7578125 325.16015625 C78.91019257 331.37337142 77.1052144 337.59558271 75.37890625 343.84375 C72.28135394 355.05414723 69.05579496 366.18997678 65.48486328 377.25927734 C62.18014749 387.5044542 59.15827105 397.81553235 56.27734375 408.1875 C55.973125 409.28151123 55.66890625 410.37552246 55.35546875 411.50268555 C54.76233971 413.64126277 54.17227877 415.78069437 53.5859375 417.92114258 C51.87393794 424.10972238 49.9732433 430.20119442 47.9128418 436.2824707 C46.75448285 439.73090437 45.70798039 443.19560165 44.6875 446.6875 C44.48584229 447.37610107 44.28418457 448.06470215 44.07641602 448.77416992 C42.77408567 453.24950355 41.51289076 457.73558699 40.265625 462.2265625 C39.96309814 463.31493408 39.66057129 464.40330566 39.34887695 465.5246582 C38.75831756 467.65513325 38.17072638 469.78643421 37.58666992 471.91870117 C35.8743353 478.10807216 33.97351755 484.20038499 31.9128418 490.2824707 C30.75448285 493.73090437 29.70798039 497.19560165 28.6875 500.6875 C28.48584229 501.37610107 28.28418457 502.06470215 28.07641602 502.77416992 C26.77408567 507.24950355 25.51289076 511.73558699 24.265625 516.2265625 C23.96309814 517.31493408 23.66057129 518.40330566 23.34887695 519.5246582 C22.75831756 521.65513325 22.17072638 523.78643421 21.58666992 525.91870117 C19.8743353 532.10807216 17.97351755 538.20038499 15.9128418 544.2824707 C14.75448285 547.73090437 13.70798039 551.19560165 12.6875 554.6875 C12.48439209 555.38117676 12.28128418 556.07485352 12.07202148 556.78955078 C10.48909356 562.22965409 8.97173626 567.68727913 7.45800781 573.14697266 C4.64356064 583.29217998 1.68774183 593.36302267 -1.53125 603.38671875 C-3.89896685 610.77317232 -6.09476243 618.21223112 -8.30175781 625.64794922 C-8.94637054 627.81934748 -9.59405697 629.98980611 -10.2421875 632.16015625 C-12.08980743 638.37337142 -13.8947856 644.59558271 -15.62109375 650.84375 C-18.71864606 662.05414723 -21.94420504 673.18997678 -25.51513672 684.25927734 C-28.81985251 694.5044542 -31.84172895 704.81553235 -34.72265625 715.1875 C-35.026875 716.28151123 -35.33109375 717.37552246 -35.64453125 718.50268555 C-36.23766029 720.64126277 -36.82772123 722.78069437 -37.4140625 724.92114258 C-39.12606206 731.10972238 -41.0267567 737.20119442 -43.0871582 743.2824707 C-44.24551715 746.73090437 -45.29201961 750.19560165 -46.3125 753.6875 C-46.51415771 754.37610107 -46.71581543 755.06470215 -46.92358398 755.77416992 C-48.22591433 760.24950355 -49.48710924 764.73558699 -50.734375 769.2265625 C-51.03690186 770.31493408 -51.33942871 771.40330566 -51.65112305 772.5246582 C-52.24168244 774.65513325 -52.82927362 776.78643421 -53.41333008 778.91870117 C-55.1256647 785.10807216 -57.02648245 791.20038499 -59.0871582 797.2824707 C-60.24551715 800.73090437 -61.29201961 804.19560165 -62.3125 807.6875 C-62.51560791 808.38117676 -62.71871582 809.07485352 -62.92797852 809.78955078 C-64.51090644 815.22965409 -66.02826374 820.68727913 -67.54199219 826.14697266 C-70.35643936 836.29217998 -73.31225817 846.36302267 -76.53125 856.38671875 C-78.89896685 863.77317232 -81.09476243 871.21223112 -83.30175781 878.64794922 C-83.94637054 880.81934748 -84.59405697 882.98980611 -85.2421875 885.16015625 C-87.08980743 891.37337142 -88.8947856 897.59558271 -90.62109375 903.84375 C-93.71864606 915.05414723 -96.94420504 926.18997678 -100.51513672 937.25927734 C-103.81985251 947.5044542 -106.84172895 957.81553235 -109.72265625 968.1875 C-110.026875 969.28151123 -110.33109375 970.37552246 -110.64453125 971.50268555 C-111.23766029 973.64126277 -111.82772123 975.78069437 -112.4140625 977.92114258 C-114.12606206 984.10972238 -116.0267567 990.20119442 -118.0871582 996.2824707 C-119.24551715 999.73090437 -120.29201961 1003.19560165 -121.3125 1006.6875 C-121.51415771 1007.37610107 -121.71581543 1008.06470215 -121.92358398 1008.77416992 C-123.22591433 1013.24950355 -124.48710924 1017.73558699 -125.734375 1022.2265625 C-126.03690186 1023.31493408 -126.33942871 1024.40330566 -126.65112305 1025.5246582 C-127.24168244 1027.65513325 -127.82927362 1029.78643421 -128.41333008 1031.91870117 C-130.1256647 1038.10807216 -132.02648245 1044.20038499 -134.0871582 1050.2824707 C-135.24551715 1053.73090437 -136.29201961 1057.19560165 -137.3125 1060.6875 C-137.51560791 1061.38117676 -137.71871582 1062.07485352 -137.92797852 1062.78955078 C-139.51090644 1068.22965409 -141.02826374 1073.68727913 -142.54199219 1079.14697266 C-145.35643936 1089.29217998 -148.31225817 1099.36302267 -151.53125 1109.38671875 C-153.89896685 1116.77317232 -156.09476243 1124.21223112 -158.30175781 1131.64794922 C-158.94637054 1133.81934748 -159.59405697 1135.98980611 -160.2421875 1138.16015625 C-162.08980743 1144.37337142 -163.8947856 1150.59558271 -165.62109375 1156.84375 C-168.71864606 1168.05414723 -171.94420504 1179.18997678 -175.51513672 1190.25927734 C-178.81195434 1200.47996856 -181.83899128 1210.76273115 -184.6875 1221.1171875 C-184.98720703 1222.20217529 -185.28691406 1223.28716309 -185.59570312 1224.4050293 C-186.17756125 1226.5170926 -186.75476497 1228.63044658 -187.32617188 1230.74536133 C-189.51666321 1238.70522029 -192.20042499 1246.16118998 -195 1254 C-225.03 1254 -255.06 1254 -286 1254 C-282.08977608 1240.03491457 -278.19905599 1226.34417979 -273.75 1212.58984375 C-271.56134485 1205.70999193 -269.63830514 1198.75796752 -267.74804688 1191.79101562 C-265.85302521 1184.86160055 -263.79391719 1177.98970018 -261.69140625 1171.12109375 C-258.4669826 1160.58691352 -255.35617158 1150.02312979 -252.2902832 1139.44186401 C-247.25957727 1122.08733275 -242.16685597 1104.75196995 -237 1087.4375 C-236.71321381 1086.47639313 -236.42642761 1085.51528625 -236.13095093 1084.52505493 C-234.67742869 1079.6550955 -233.22281443 1074.78546311 -231.76757812 1069.91601562 C-228.75693633 1059.84127009 -225.75309119 1049.76449834 -222.75 1039.6875 C-222.45713104 1038.70506317 -222.16426208 1037.72262634 -221.86251831 1036.7104187 C-217.85921924 1023.27934545 -213.88608564 1009.839794 -209.94424438 996.39056396 C-207.2252804 987.11631762 -204.44878185 977.86179968 -201.61157227 968.62304688 C-198.79241292 959.40240746 -196.11881474 950.13985187 -193.45874023 940.87231445 C-191.2502184 933.20575698 -188.96261012 925.56692416 -186.62890625 917.9375 C-183.42720608 907.46411903 -180.3381426 896.9609066 -177.2902832 886.44186401 C-170.84790927 864.21747219 -164.2732434 842.03382368 -157.64755249 819.86351013 C-155.53540571 812.79572121 -153.42842428 805.72640703 -151.32421875 798.65625 C-151.02159622 797.63950699 -150.71897369 796.62276398 -150.40718079 795.57521057 C-149.80077327 793.53778314 -149.19437368 791.50035334 -148.58798218 789.46292114 C-141.40373686 765.32544433 -141.40373686 765.32544433 -138.4375 755.47265625 C-138.24455856 754.83175049 -138.05161713 754.19084473 -137.85282898 753.53051758 C-137.29775242 751.68700175 -136.74262683 749.84350069 -136.1875 748 C-132.83370839 736.85971312 -129.56644302 725.69605276 -126.35620117 714.51367188 C-124.18427195 706.97558586 -121.93109596 699.46643961 -119.63671875 691.96484375 C-116.43258647 681.48230157 -113.34077858 670.97000411 -110.2902832 660.44186401 C-103.84790927 638.21747219 -97.2732434 616.03382368 -90.64755249 593.86351013 C-88.53540571 586.79572121 -86.42842428 579.72640703 -84.32421875 572.65625 C-84.02159622 571.63950699 -83.71897369 570.62276398 -83.40718079 569.57521057 C-82.80077327 567.53778314 -82.19437368 565.50035334 -81.58798218 563.46292114 C-74.40373686 539.32544433 -74.40373686 539.32544433 -71.4375 529.47265625 C-71.24455856 528.83175049 -71.05161713 528.19084473 -70.85282898 527.53051758 C-70.29775242 525.68700175 -69.74262683 523.84350069 -69.1875 522 C-65.83370839 510.85971312 -62.56644302 499.69605276 -59.35620117 488.51367188 C-57.18427195 480.97558586 -54.93109596 473.46643961 -52.63671875 465.96484375 C-49.43208595 455.48066407 -46.33985942 444.96671111 -43.28890991 434.43692017 C-38.15005126 416.71053785 -32.9538239 399.00143003 -27.6875 381.3125 C-27.39365417 380.32538025 -27.09980835 379.3382605 -26.79705811 378.32122803 C-22.95098941 365.41374374 -19.01747819 352.53826724 -14.98364258 339.68823242 C-12.36909483 331.31390449 -9.93927411 322.89780427 -7.64477539 314.43017578 C-5.78892679 307.62964714 -3.7621277 300.88833764 -1.69921875 294.1484375 C1.52763543 283.60509601 4.64119263 273.03222668 7.7097168 262.44186401 C12.74042273 245.08733275 17.83314403 227.75196995 23 210.4375 C23.43017929 208.99583969 23.43017929 208.99583969 23.86904907 207.52505493 C25.32257131 202.6550955 26.77718557 197.78546311 28.23242188 192.91601562 C31.24306367 182.84127009 34.24690881 172.76449834 37.25 162.6875 C37.68930344 161.21384476 37.68930344 161.21384476 38.13748169 159.7104187 C42.13877751 146.28606637 46.11066837 132.85344932 50.04971313 119.41070557 C52.88876592 109.72421964 55.77587947 100.05382047 58.75756836 90.41015625 C60.63953264 84.29809973 62.31464843 78.17962241 64 72 C36.28 72 8.56 72 -20 72 C-19.29751339 67.08259376 -18.51877653 62.87070356 -17.1796875 58.16015625 C-17.00020569 57.52436646 -16.82072388 56.88857666 -16.63580322 56.23352051 C-16.05339679 54.17519708 -15.46441514 52.11882632 -14.875 50.0625 C-14.46830604 48.63216 -14.06189606 47.20173923 -13.65576172 45.77124023 C-12.44446067 41.51205942 -11.22333224 37.25573825 -10 33 C-9.4750293 31.17082031 -9.4750293 31.17082031 -8.93945312 29.3046875 C-8.00521873 26.05614177 -7.0667516 22.80887377 -6.125 19.5625 C-5.71483643 18.14626343 -5.71483643 18.14626343 -5.29638672 16.70141602 C-5.03615723 15.81123779 -4.77592773 14.92105957 -4.5078125 14.00390625 C-4.28754395 13.24924072 -4.06727539 12.4945752 -3.84033203 11.71704102 C-2.62590504 7.79044079 -1.2997316 3.89919479 0 0 Z " fill="#FEFEFE" transform="translate(2954,1020)"/>
<path d="M0 0 C13.86 0 27.72 0 42 0 C53.66636473 39.6656401 53.66636473 39.6656401 57.78515625 54.24560547 C59.06047702 58.75489844 60.3730659 63.24867567 61.7421875 67.73046875 C62.02570068 68.67510986 62.30921387 69.61975098 62.60131836 70.59301758 C63.14279219 72.39450497 63.69501943 74.19280954 64.26000977 75.98706055 C66.42437657 83.26119947 65.51674637 88.70212205 63.375 95.9375 C63.01792969 97.15566406 62.66085937 98.37382813 62.29296875 99.62890625 C61.98818604 100.65781982 61.98818604 100.65781982 61.67724609 101.70751953 C60.9200762 104.27054236 60.172319 106.83620409 59.42578125 109.40234375 C58.24058786 113.47593752 57.05312269 117.54885509 55.86328125 121.62109375 C54.63004821 125.842023 53.39820267 130.06335189 52.16796875 134.28515625 C49.42731056 143.68997247 46.6826087 153.09348729 43.91357422 162.48999023 C42.09771254 168.65669188 40.29850236 174.82821627 38.5 181 C36.31471428 188.49907879 34.12204612 195.99585683 31.9140625 203.48828125 C30.098075 209.65556346 28.29866812 215.82764742 26.5 222 C24.50802334 228.83571477 22.51261931 235.67033305 20.5 242.5 C17.31020484 253.3265711 14.15755662 264.16399279 11 275 C4.15498843 298.49050347 4.15498843 298.49050347 0.91357422 309.48999023 C-0.90228746 315.65669188 -2.70149764 321.82821627 -4.5 328 C-6.68528572 335.49907879 -8.87795388 342.99585683 -11.0859375 350.48828125 C-12.901925 356.65556346 -14.70133188 362.82764742 -16.5 369 C-18.49197666 375.83571477 -20.48738069 382.67033305 -22.5 389.5 C-25.68979516 400.3265711 -28.84244338 411.16399279 -32 422 C-38.84501157 445.49050347 -38.84501157 445.49050347 -42.08642578 456.48999023 C-43.90228746 462.65669188 -45.70149764 468.82821627 -47.5 475 C-49.49197666 481.83571477 -51.48738069 488.67033305 -53.5 495.5 C-56.68979516 506.3265711 -59.84244338 517.16399279 -63 528 C-69.84501157 551.49050347 -69.84501157 551.49050347 -73.08642578 562.48999023 C-74.90228746 568.65669188 -76.70149764 574.82821627 -78.5 581 C-80.68528572 588.49907879 -82.87795388 595.99585683 -85.0859375 603.48828125 C-86.901925 609.65556346 -88.70133188 615.82764742 -90.5 622 C-92.49197666 628.83571477 -94.48738069 635.67033305 -96.5 642.5 C-99.68979516 653.3265711 -102.84244338 664.16399279 -106 675 C-112.84501157 698.49050347 -112.84501157 698.49050347 -116.08642578 709.48999023 C-117.90228746 715.65669188 -119.70149764 721.82821627 -121.5 728 C-123.68528572 735.49907879 -125.87795388 742.99585683 -128.0859375 750.48828125 C-129.901925 756.65556346 -131.70133188 762.82764742 -133.5 769 C-135.49197666 775.83571477 -137.48738069 782.67033305 -139.5 789.5 C-142.68979516 800.3265711 -145.84244338 811.16399279 -149 822 C-155.84501157 845.49050347 -155.84501157 845.49050347 -159.08642578 856.48999023 C-160.90228746 862.65669188 -162.70149764 868.82821627 -164.5 875 C-166.68528572 882.49907879 -168.87795388 889.99585683 -171.0859375 897.48828125 C-172.901925 903.65556346 -174.70133188 909.82764742 -176.5 916 C-178.49197666 922.83571477 -180.48738069 929.67033305 -182.5 936.5 C-185.68979516 947.3265711 -188.84244338 958.16399279 -192 969 C-198.84501157 992.49050347 -198.84501157 992.49050347 -202.08642578 1003.48999023 C-203.90228756 1009.65669222 -205.7013888 1015.82824775 -207.5 1022 C-208.66635187 1026.00009186 -209.83307112 1030.00007643 -211 1034 C-211.25346191 1034.86915039 -211.50692383 1035.73830078 -211.76806641 1036.63378906 C-212.44829724 1038.96455967 -213.13010271 1041.2948629 -213.8125 1043.625 C-214.00714844 1044.29273437 -214.20179687 1044.96046875 -214.40234375 1045.6484375 C-215.52259498 1049.4667586 -216.7403551 1053.2210653 -218 1057 C-248.03 1057 -278.06 1057 -309 1057 C-306.64847326 1047.59389302 -304.29014741 1038.47188616 -301.33886719 1029.28173828 C-299.02125603 1021.95818115 -296.98408406 1014.54982223 -294.89465332 1007.15875244 C-291.19358484 994.07293656 -287.45894143 981.00413201 -283.44189453 968.01123047 C-280.87314612 959.67258161 -278.47833679 951.28654647 -276.10253906 942.89111328 C-269.70553821 920.30362416 -263.01366688 897.79916614 -256.40673828 875.27246094 C-248.16377538 847.1843167 -248.16377538 847.1843167 -239.99609375 819.07421875 C-237.43145371 810.20273816 -234.82802939 801.35392139 -232 792.5625 C-229.84865589 785.85086791 -227.87601096 779.10603755 -226 772.3125 C-222.49753667 759.63063846 -218.81653997 747.00287685 -215.125 734.375 C-214.66575638 732.80366806 -214.66575638 732.80366806 -214.19723511 731.20059204 C-212.97787533 727.02877659 -211.75832009 722.85701843 -210.53825378 718.68540955 C-208.03549277 710.12673889 -205.54591652 701.56430042 -203.0625 693 C-202.35937975 690.57812362 -201.65625494 688.15624857 -200.953125 685.734375 C-199.66860559 681.30823021 -198.387834 676.88102372 -197.109375 672.453125 C-194.50579154 663.4554366 -191.86670129 654.48017827 -189 645.5625 C-186.45459488 637.6256924 -184.17988718 629.62866908 -181.95703125 621.59619141 C-177.85952896 606.8200153 -173.55217537 592.10392671 -169.27197266 577.37988281 C-168.16016393 573.55394972 -167.05381911 569.72645866 -165.94921875 565.8984375 C-163.40086083 557.08490869 -160.80578359 548.29774742 -158 539.5625 C-155.848964 532.85076304 -153.87601483 526.10605158 -152 519.3125 C-148.49753667 506.63063846 -144.81653997 494.00287685 -141.125 481.375 C-140.66575638 479.80366806 -140.66575638 479.80366806 -140.19723511 478.20059204 C-138.97787533 474.02877659 -137.75832009 469.85701843 -136.53825378 465.68540955 C-134.03549277 457.12673889 -131.54591652 448.56430042 -129.0625 440 C-128.35937975 437.57812362 -127.65625494 435.15624857 -126.953125 432.734375 C-125.66860559 428.30823021 -124.387834 423.88102372 -123.109375 419.453125 C-120.50578968 410.45543018 -117.86651795 401.48024018 -115 392.5625 C-112.84881006 385.85081543 -110.8760129 379.10604457 -109 372.3125 C-105.49753667 359.63063846 -101.81653997 347.00287685 -98.125 334.375 C-97.66575638 332.80366806 -97.66575638 332.80366806 -97.19723511 331.20059204 C-95.97787533 327.02877659 -94.75832009 322.85701843 -93.53825378 318.68540955 C-91.03549277 310.12673889 -88.54591652 301.56430042 -86.0625 293 C-85.35937975 290.57812362 -84.65625494 288.15624857 -83.953125 285.734375 C-82.66860559 281.30823021 -81.387834 276.88102372 -80.109375 272.453125 C-77.50579154 263.4554366 -74.86670129 254.48017827 -72 245.5625 C-69.45459488 237.6256924 -67.17988718 229.62866908 -64.95703125 221.59619141 C-60.85952896 206.8200153 -56.55217537 192.10392671 -52.27197266 177.37988281 C-51.16016393 173.55394972 -50.05381911 169.72645866 -48.94921875 165.8984375 C-46.40086083 157.08490869 -43.80578359 148.29774742 -41 139.5625 C-38.848964 132.85076304 -36.87601483 126.10605158 -35 119.3125 C-31.49753667 106.63063846 -27.81653997 94.00287685 -24.125 81.375 C-23.66575638 79.80366806 -23.66575638 79.80366806 -23.19723511 78.20059204 C-21.97787533 74.02877659 -20.75832009 69.85701843 -19.53825378 65.68540955 C-17.0354928 57.12673899 -14.54588077 48.56431072 -12.0625 40 C-11.3658983 37.60025668 -10.66928419 35.20051696 -9.97265625 32.80078125 C-8.62387236 28.15304397 -7.27815537 23.50442908 -5.93359375 18.85546875 C-5.28912611 16.63279406 -4.64459807 14.41013687 -4 12.1875 C-3.70875244 11.17751953 -3.41750488 10.16753906 -3.11743164 9.12695312 C-2.71899048 7.75506836 -2.71899048 7.75506836 -2.3125 6.35546875 C-2.08175781 5.55778076 -1.85101562 4.76009277 -1.61328125 3.93823242 C-1 2 -1 2 0 0 Z " fill="#FEFEFE" transform="translate(2223,1217)"/>
<path d="M0 0 C27.24217208 -0.256978 54.4841625 -0.45094579 81.72730255 -0.56993389 C94.37688211 -0.62665128 107.02570854 -0.70397353 119.67480469 -0.82983398 C130.6999987 -0.93948406 141.72464733 -1.01044259 152.75037146 -1.03497344 C158.58860636 -1.04931328 164.42528105 -1.08300128 170.26301575 -1.16303062 C175.75953584 -1.23777085 181.25385544 -1.2607141 186.75083542 -1.24418449 C188.76651858 -1.24720761 190.78227625 -1.26905055 192.79751968 -1.31126022 C208.03676813 -1.6147579 208.03676813 -1.6147579 212.93887234 2.41722202 C214.99505406 5.20216799 216.53174702 7.87372852 218 11 C218.7432251 12.08514893 219.4864502 13.17029785 220.25219727 14.28833008 C221.11929321 15.60933716 221.11929321 15.60933716 222.00390625 16.95703125 C225.9317576 22.90191321 229.92549879 28.79916362 233.9375 34.6875 C235.05430935 36.3282446 236.17111778 37.96898982 237.28787231 39.60977173 C238.43507141 41.2951396 239.58250872 42.9803451 240.72998047 44.66552734 C244.3224838 49.94198664 247.91097943 55.22117147 251.5 60.5 C252.91404917 62.57943615 254.32811171 64.65886321 255.7421875 66.73828125 C258.60193671 70.94375613 261.46126976 75.14951355 264.3203125 79.35546875 C271.04067352 89.2412172 277.76409175 99.1248369 284.5 109 C291.95863574 119.9347161 299.40167033 130.88000802 306.84277344 141.82666016 C310.39460354 147.05150032 313.94734352 152.27572171 317.5 157.5 C318.91667112 159.58333031 320.33333778 161.66666364 321.75 163.75 C322.45125 164.78125 323.1525 165.8125 323.875 166.875 C500.25 426.25 500.25 426.25 502.37695312 429.37792969 C503.78703808 431.45154588 505.1971938 433.52511395 506.60742188 435.59863281 C509.87044944 440.3965813 513.13291261 445.19490902 516.39254761 449.99516296 C517.52328335 451.6601443 518.6544528 453.3248304 519.78564453 454.98950195 C521.24127842 457.13283057 522.69542475 459.27717034 524.14794922 461.42260742 C527.08617117 465.75552858 530.02935736 470.07708934 533.1015625 474.31640625 C533.75705078 475.2276123 533.75705078 475.2276123 534.42578125 476.15722656 C535.5151837 477.66092131 536.62003518 479.15339314 537.7265625 480.64453125 C539 483 539 483 538.77685547 484.83496094 C537.80931979 487.53141173 536.44663166 489.61870492 534.84375 491.99609375 C534.16368896 493.01074707 533.48362793 494.02540039 532.78295898 495.07080078 C532.02210188 496.19312147 531.261111 497.31535148 530.5 498.4375 C529.70273341 499.62191484 528.90595291 500.806657 528.10961914 501.99169922 C525.89526805 505.28338754 523.67328002 508.56985969 521.45001221 511.85552979 C519.43572158 514.83452971 517.42593152 517.81655545 515.41596985 520.79847717 C510.11805779 528.65812639 504.80993949 536.51080062 499.49421692 544.3584137 C496.64143597 548.57106686 493.79445863 552.78751705 490.95549011 557.00949097 C489.73820789 558.8190462 488.51904467 560.62731622 487.29907227 562.43505859 C485.84560415 564.58932014 484.39538526 566.74577876 482.94897461 568.90478516 C482.31741455 569.8385498 481.68585449 570.77231445 481.03515625 571.734375 C480.22123413 572.94432129 480.22123413 572.94432129 479.39086914 574.17871094 C478 576 478 576 476 577 C475.51345947 576.28271729 475.02691895 575.56543457 474.52563477 574.82641602 C463.72424361 558.90331567 452.91486968 542.98569869 442.09277344 527.07666016 C438.56125214 521.88484595 435.03067794 516.69238775 431.5 511.5 C430.08333778 509.41666364 428.66667112 507.33333031 427.25 505.25 C357.125 402.125 287 299 163.75 117.75 C163.04738037 116.71689697 162.34476074 115.68379395 161.62084961 114.61938477 C160.21741091 112.55518122 158.81456965 110.49057134 157.41235352 108.42553711 C154.07810289 103.51679003 150.73761381 98.61261595 147.37619019 93.72244263 C145.77889738 91.39793808 144.18496855 89.07113681 142.59130859 86.74414062 C141.45738993 85.09148896 140.31858061 83.44219631 139.1796875 81.79296875 C138.50035156 80.80039063 137.82101563 79.8078125 137.12109375 78.78515625 C136.5170874 77.90738525 135.91308105 77.02961426 135.29077148 76.12524414 C134 74 134 74 134 72 C132.97206833 72.03552979 131.94413666 72.07105957 130.88505554 72.10766602 C121.16214513 72.43306927 111.44034803 72.67233549 101.71321392 72.82899475 C96.71265727 72.9122554 91.71651869 73.02498341 86.71850586 73.20703125 C81.88754896 73.38187758 77.06081618 73.47673104 72.22693825 73.51803589 C70.39044457 73.54743341 68.55416384 73.6048573 66.71948814 73.69168091 C52.73327054 74.32677269 52.73327054 74.32677269 48.15416145 70.42867851 C44.80391553 66.59533285 42.31462158 62.36206415 39.98304749 57.85387993 C38.75042626 55.5293414 37.28642941 53.42916115 35.72265625 51.31640625 C35.0565332 50.37474609 35.0565332 50.37474609 34.37695312 49.4140625 C33.94318359 48.80304688 33.50941406 48.19203125 33.0625 47.5625 C32.05335725 46.13673868 31.04424353 44.71095683 30.03515625 43.28515625 C29.53387207 42.57762207 29.03258789 41.87008789 28.51611328 41.14111328 C25.51192927 36.89848948 22.51626924 32.64984066 19.52001953 28.40161133 C16.91324668 24.70661153 14.30187394 21.01498171 11.68359375 17.328125 C11.14025391 16.56177734 10.59691406 15.79542969 10.03710938 15.00585938 C8.99951141 13.5425802 7.96053143 12.08027965 6.91992188 10.61914062 C6.45005859 9.95591797 5.98019531 9.29269531 5.49609375 8.609375 C5.08544678 8.03155273 4.6747998 7.45373047 4.25170898 6.85839844 C2.74587055 4.62269682 1.38053419 2.31471389 0 0 Z " fill="#FEFEFE" transform="translate(108,1020)"/>
<path d="M0 0 C3.88260556 1.29420185 4.52703132 2.85502513 6.78125 6.23828125 C7.14741425 6.78274902 7.51357849 7.3272168 7.89083862 7.88818359 C9.10126287 9.69147323 10.30046275 11.5019542 11.5 13.3125 C12.3411133 14.5691704 13.1830852 15.82526651 14.02587891 17.08081055 C15.789187 19.7091836 17.54869608 22.34004125 19.30566406 24.97265625 C23.22065836 30.8325553 27.1796445 36.66257934 31.1394043 42.49227905 C32.35031553 44.27613601 33.55919676 46.06135245 34.76757812 47.84692383 C38.44710008 53.27931474 42.15069215 58.68611486 46 64 C44.3054951 67.66724538 42.11514979 70.9629758 39.87109375 74.30859375 C39.24560638 75.24678703 39.24560638 75.24678703 38.60748291 76.20393372 C37.21993256 78.2834331 35.82883388 80.3605305 34.4375 82.4375 C33.44954633 83.91563709 32.46167362 85.3938283 31.47387695 86.87207031 C21.62255127 101.60315153 11.69779579 116.28470649 1.7641449 130.96034241 C-3.47551456 138.70124758 -8.70862438 146.44657023 -13.94107056 154.19235229 C-16.54115119 158.04119236 -19.14170273 161.88971423 -21.7421875 165.73828125 C-25.40795268 171.1635392 -29.07351072 176.58893702 -32.73883057 182.01449585 C-43.79415128 198.37902436 -54.85266668 214.74137575 -65.91955566 231.0980835 C-76.56769578 246.83616812 -87.20564095 262.58113439 -97.84277344 278.32666016 C-103.58131503 286.82100481 -109.32070292 295.31477768 -115.05993652 303.80865479 C-116.62069214 306.1185267 -118.18144209 308.42840244 -119.7421875 310.73828125 C-120.25740967 311.500802 -120.77263184 312.26332275 -121.3034668 313.0489502 C-124.44877019 317.70400905 -127.59387506 322.35920196 -130.73883057 327.01449585 C-141.79415128 343.37902436 -152.85266668 359.74137575 -163.91955566 376.0980835 C-174.56769578 391.83616812 -185.20564095 407.58113439 -195.84277344 423.32666016 C-200.54129796 430.28154339 -205.24042817 437.23601736 -209.93951416 444.19052124 C-212.54303439 448.04366397 -215.14651519 451.89683334 -217.75 455.75 C-218.79166648 457.29166679 -219.83333314 458.83333346 -220.875 460.375 C-221.390625 461.138125 -221.90625 461.90125 -222.4375 462.6875 C-227.1250001 469.62500015 -227.1250001 469.62500015 -228.68746948 471.93745422 C-229.72923863 473.47927297 -230.77100702 475.02109222 -231.81277466 476.56291199 C-234.41536719 480.41475605 -237.0179728 484.26659127 -239.62060547 488.1184082 C-245.3815169 496.64441518 -251.14216356 505.17060089 -256.90223694 513.69717407 C-259.50751944 517.55363953 -262.11313366 521.40988006 -264.71948242 525.265625 C-265.74659146 526.78514988 -266.77369108 528.30468112 -267.80078125 529.82421875 C-268.30757919 530.57399994 -268.81437714 531.32378113 -269.33653259 532.09628296 C-272.53093888 536.82325141 -275.72158956 541.55273365 -278.90979004 546.28388977 C-281.03518682 549.43733346 -283.16221837 552.58967248 -285.28948975 555.74185181 C-286.29388495 557.23105597 -287.2975237 558.72077064 -288.300354 560.21102905 C-289.68396535 562.26700725 -291.0702059 564.3211889 -292.45703125 566.375 C-293.06154366 567.2754882 -293.06154366 567.2754882 -293.67826843 568.19416809 C-294.76948521 569.80707212 -295.8840884 571.40408185 -297 573 C-297.52685898 573.87726242 -298.05371796 574.75452484 -298.59654236 575.65837097 C-301.44462429 578.43318639 -303.24271397 578.58653851 -307.14573669 578.62210083 C-308.37248863 578.59513626 -308.37248863 578.59513626 -309.62402344 578.56762695 C-310.92700127 578.56872215 -310.92700127 578.56872215 -312.25630188 578.56983948 C-315.12463037 578.56635878 -317.99133058 578.52747539 -320.859375 578.48828125 C-322.84905103 578.47895483 -324.83873855 578.47183791 -326.82843018 578.46684265 C-332.06316882 578.44775947 -337.29721288 578.39864693 -342.53167725 578.34332275 C-347.87388716 578.29215895 -353.2162094 578.26933472 -358.55859375 578.24414062 C-369.03936754 578.19052978 -379.51962599 578.10520069 -390 578 C-389.2196286 576.57678069 -388.43694752 575.15482769 -387.65332031 573.73339844 C-386.99991669 572.54541656 -386.99991669 572.54541656 -386.33331299 571.33343506 C-384.33263806 567.83204787 -382.061078 564.55142974 -379.75 561.25 C-378.59248786 559.57639306 -377.43636781 557.90182289 -376.28125 556.2265625 C-375.61738281 555.26395508 -374.95351563 554.30134766 -374.26953125 553.30957031 C-369.5519272 546.44506732 -364.90942025 539.52904222 -360.25 532.625 C-359.16312813 531.01527099 -358.07621361 529.40557078 -356.98925781 527.79589844 C-354.76539376 524.50243469 -352.54179319 521.20879327 -350.31835938 517.91503906 C-345.56458578 510.87332517 -340.80743924 503.83389071 -336.05041504 496.79437256 C-333.45012602 492.94635018 -330.85007556 489.09816661 -328.25 485.25 C-327.20833447 483.70833257 -326.1666678 482.1666659 -325.125 480.625 C-324.609375 479.861875 -324.09375 479.09875 -323.5625 478.3125 C-243.87499979 360.37499969 -243.87499979 360.37499969 -242.31253052 358.06254578 C-241.27076137 356.52072703 -240.22899298 354.97890778 -239.18722534 353.43708801 C-236.58463281 349.58524395 -233.9820272 345.73340873 -231.37939453 341.8815918 C-226.67309335 334.91638201 -221.96688946 327.95110659 -217.26116943 320.98550415 C-206.20584872 304.62097564 -195.14733332 288.25862425 -184.08044434 271.9019165 C-173.43230422 256.16383188 -162.79435905 240.41886561 -152.15722656 224.67333984 C-147.45870204 217.71845661 -142.75957183 210.76398264 -138.06048584 203.80947876 C-135.45696561 199.95633603 -132.85348481 196.10316666 -130.25 192.25 C-129.20833352 190.70833321 -128.16666686 189.16666654 -127.125 187.625 C-126.609375 186.861875 -126.09375 186.09875 -125.5625 185.3125 C-70.87499971 104.37499957 -70.87499971 104.37499957 -69.31253052 102.06254578 C-68.27076137 100.52072703 -67.22899298 98.97890778 -66.18722534 97.43708801 C-63.58463281 93.58524395 -60.9820272 89.73340873 -58.37939453 85.8815918 C-52.61835511 77.3553954 -46.85765466 68.82897016 -41.09735107 60.30227661 C-36.9579214 54.1750155 -32.81762947 48.04833743 -28.67706299 41.92184448 C-25.45434256 37.15310391 -22.23315059 32.38333436 -19.0128479 27.61296082 C-16.85779702 24.42100176 -14.70185104 21.22964797 -12.54571533 18.03842163 C-11.52119053 16.52161924 -10.49705661 15.00455276 -9.47332764 13.48721313 C-8.06656226 11.40224909 -6.65844676 9.31820344 -5.25 7.234375 C-4.62226181 6.30291908 -4.62226181 6.30291908 -3.98184204 5.35264587 C-1.11400557 1.11400557 -1.11400557 1.11400557 0 0 Z " fill="#FEFEFE" transform="translate(581,1695)"/>
</svg>
